<svg xmlns="http://www.w3.org/2000/svg" width="400" height="400" viewBox="0 0 213.8 189.358"><g transform="translate(-106.121 -193.757)"><g transform="translate(162.672 327.933)"><path d="M275.764,380.633s-8.2-34.222-55.262-42.245c-16.221-2.765-33.673,23.154-.763,25.524C233.34,364.89,251.633,362.179,275.764,380.633Z" transform="translate(-201.099 -338.182)" fill="#972330"/><path d="M213.409,347.873s46.724,2.662,67.761,43.274" transform="translate(-198.593 -336.209)" fill="#972330" stroke="#670000" stroke-miterlimit="10" stroke-width="1.056"/></g><g transform="translate(224.016 193.757)"><path d="M321.586,231.18c-5.51,4.179-6.824,11.723-6.824,11.723s7.619.77,13.13-3.409,8.566-9.427,6.824-11.723S327.1,227,321.586,231.18Z" transform="translate(-239.301 -226.703)" fill="#972330"/><path d="M311.467,245.026c-4.722,2.245-6.856,7.627-6.856,7.627s5.522,1.742,10.243-.5,7.791-5.659,6.856-7.627S316.188,242.781,311.467,245.026Z" transform="translate(-241.368 -223.348)" fill="#972330"/><path d="M305.9,241.164c-1.712,4.94.627,10.235.627,10.235s5.114-2.713,6.827-7.653,1.431-9.523-.627-10.235S307.612,236.224,305.9,241.164Z" transform="translate(-241.233 -225.336)" fill="#972330"/><path d="M305.737,254.256c-6.046,1.8-9.592,7.813-9.592,7.813s6.255,3.105,12.3,1.31,10.34-5.293,9.592-7.813S311.782,252.46,305.737,254.256Z" transform="translate(-243.092 -221.305)" fill="#972330"/><path d="M294.907,251.027c-1.4,6.15,2.114,12.188,2.114,12.188s5.771-3.932,7.166-10.083.45-11.606-2.112-12.188S296.3,244.877,294.907,251.027Z" transform="translate(-243.411 -223.814)" fill="#972330"/><path d="M301.777,264.909c-6.3.359-11.13,5.4-11.13,5.4s5.374,4.459,11.67,4.1,11.28-2.775,11.131-5.4S308.073,264.552,301.777,264.909Z" transform="translate(-244.211 -218.933)" fill="#972330"/><path d="M296.227,276.916c-6.729.094-12.114,5.246-12.114,5.246s5.526,5,12.255,4.908,12.154-2.443,12.115-5.248S302.957,276.823,296.227,276.916Z" transform="translate(-245.541 -216.48)" fill="#972330"/><path d="M291.174,288.906c-6.705-.592-12.586,3.986-12.586,3.986s4.989,5.538,11.693,6.129,12.339-1.193,12.585-3.986S297.878,289.5,291.174,288.906Z" transform="translate(-246.666 -214.049)" fill="#972330"/><path d="M285.228,302.548c-6.71.518-11.759,6-11.759,6s5.83,4.643,12.542,4.126,11.975-3.205,11.759-6S291.94,302.03,285.228,302.548Z" transform="translate(-247.709 -211.278)" fill="#972330"/><path d="M292.219,260.084c2.832,5.635.875,12.339.875,12.339s-6.546-2.432-9.377-8.067-3.222-11.16-.875-12.339S289.388,254.45,292.219,260.084Z" transform="translate(-246.112 -221.594)" fill="#972330"/><path d="M283.527,271.971c4.137,5.309,3.486,12.734,3.486,12.734s-7.359-1.182-11.5-6.491-5.7-11.009-3.486-12.734S279.39,266.663,283.527,271.971Z" transform="translate(-248.206 -218.909)" fill="#972330"/><path d="M277.453,283.3c4.656,4.86,4.764,12.313,4.764,12.313s-7.442-.427-12.1-5.287-6.788-10.373-4.764-12.313S272.8,278.438,277.453,283.3Z" transform="translate(-249.516 -216.395)" fill="#972330"/><path d="M273.672,298.234c3.794,5.558,2.676,12.928,2.676,12.928s-7.27-1.644-11.063-7.2-4.993-11.346-2.676-12.928S269.878,292.675,273.672,298.234Z" transform="translate(-250.16 -213.687)" fill="#972330"/><path d="M280.163,316.958c-6.459,1.891-10.269,8.3-10.269,8.3s6.662,3.34,13.122,1.45,11.058-5.605,10.27-8.3S286.623,315.067,280.163,316.958Z" transform="translate(-248.436 -208.547)" fill="#972330"/><path d="M268.083,314.646c4.859,4.657,5.285,12.1,5.285,12.1s-7.453-.11-12.312-4.766-7.225-10.074-5.284-12.1S263.224,309.988,268.083,314.646Z" transform="translate(-251.45 -209.924)" fill="#972330"/><path d="M277.4,332.384c-6.274,2.432-9.527,9.14-9.527,9.14s6.923,2.761,13.2.329,10.541-6.525,9.528-9.14S283.673,329.95,277.4,332.384Z" transform="translate(-248.848 -205.539)" fill="#972330"/><path d="M265.263,330.892c5.237,4.227,6.294,11.605,6.294,11.605s-7.435.525-12.672-3.7-8.056-9.422-6.295-11.605S260.025,326.666,265.263,330.892Z" transform="translate(-252.066 -206.439)" fill="#972330"/><path d="M331.107,236.241s-31.889,19.843-50.869,71.044S268.3,405.4,268.3,405.4" transform="translate(-249.021 -224.761)" fill="#972330" stroke="#670000" stroke-miterlimit="10" stroke-width="1.579"/></g><path d="M284.633,379.781s6.25-73.291-81.839-120.177c-30.363-16.161-82.044,23.777-18.312,50.135C210.823,320.631,248.9,327.29,284.633,379.781Z" transform="translate(-47.993 -27.007)" fill="#972330"/><path d="M180.734,275.352S271.681,311.379,286.692,405.8" transform="translate(-42.574 -23.041)" fill="none" stroke="#670000" stroke-miterlimit="10" stroke-width="2.207"/><g transform="translate(244.244 315.412)"><path d="M269.061,382.033s-1.637-31.286,18.741-50.917c9.244-8.905,31.853,1.176,11.169,16.491C290.423,353.935,277.242,359.795,269.061,382.033Z" transform="translate(-268.84 -327.778)" fill="#972330"/><path d="M295.644,335.228s-29.659,21.28-26.542,56.82" transform="translate(-268.872 -326.261)" fill="#972330" stroke="#670000" stroke-miterlimit="10" stroke-width="0.823"/></g></g></svg>