<svg xmlns="http://www.w3.org/2000/svg" width="400" height="400" viewBox="0 0 126.542 214.338"><g transform="translate(-500.087 -158.815)"><g transform="translate(500.087 168.66)"><path d="M545.675,213.4c-6.36,3.5-8.878,11.132-8.878,11.132s7.795,1.963,14.156-1.535,10.337-8.482,8.879-11.132S552.036,209.9,545.675,213.4Z" transform="translate(-442.165 -210.248)" fill="#972330"/><path d="M532.877,226.32c-5.247,1.609-8.284,6.873-8.284,6.873s5.468,2.653,10.714,1.042,8.955-4.687,8.283-6.874S538.124,224.71,532.877,226.32Z" transform="translate(-444.65 -207.171)" fill="#972330"/><path d="M527.772,221.624c-2.534,4.869-.914,10.725-.914,10.725s5.727-2.036,8.259-6.905,2.941-9.67.912-10.725S530.3,216.755,527.772,221.624Z" transform="translate(-444.292 -209.379)" fill="#972330"/><path d="M525.5,234.987c-6.553.942-11.154,6.649-11.154,6.649s6.022,4.18,12.574,3.239,11.546-3.918,11.154-6.649S532.053,234.045,525.5,234.987Z" transform="translate(-446.736 -205.269)" fill="#972330"/><path d="M514.889,230.184c-2.389,6.173.332,12.98.332,12.98s6.594-3.2,8.982-9.375,2.24-11.985-.332-12.981S517.277,224.01,514.889,230.184Z" transform="translate(-446.825 -208.127)" fill="#972330"/><path d="M519.674,245.542c-6.593-.59-12.383,3.907-12.383,3.907s4.9,5.452,11.493,6.041,12.137-1.159,12.383-3.907S526.267,246.132,519.674,245.542Z" transform="translate(-448.172 -203.073)" fill="#972330"/><path d="M512.072,257.157c-7-.932-13.383,3.6-13.383,3.6s4.976,6.038,11.978,6.969,13-.68,13.383-3.6S519.074,258.088,512.072,257.157Z" transform="translate(-449.924 -200.723)" fill="#972330"/><path d="M504.961,268.862c-6.871-1.638-13.679,2.218-13.679,2.218s4.335,6.513,11.207,8.151,13,.646,13.679-2.217S511.834,270.5,504.961,268.862Z" transform="translate(-451.432 -198.396)" fill="#972330"/><path d="M496.757,282.074c-7.048-.487-13.129,4.435-13.129,4.435s5.346,5.712,12.393,6.2,12.926-1.5,13.129-4.435S503.8,282.561,496.757,282.074Z" transform="translate(-452.99 -195.631)" fill="#972330"/><path d="M510.468,239.3c2.079,6.285-.976,12.948-.976,12.948s-6.427-3.527-8.507-9.811-1.642-12.082.976-12.947S508.388,233.013,510.468,239.3Z" transform="translate(-449.724 -206.353)" fill="#972330"/><path d="M499.595,250.314c3.486,6.144,1.675,13.756,1.675,13.756s-7.461-2.352-10.947-8.5-4.236-12.3-1.675-13.756S496.109,244.168,499.595,250.314Z" transform="translate(-452.278 -203.883)" fill="#972330"/><path d="M491.547,261.147c4.092,5.758,3.066,13.514,3.066,13.514s-7.662-1.58-11.754-7.338-5.466-11.809-3.067-13.514S487.454,255.389,491.547,261.147Z" transform="translate(-454.012 -201.47)" fill="#972330"/><path d="M485.36,276.081c3.091,6.353.8,13.834.8,13.834s-7.3-2.818-10.39-9.17-3.452-12.546-.8-13.834S482.268,269.729,485.36,276.081Z" transform="translate(-455.114 -198.759)" fill="#972330"/><path d="M489.382,296.172c-7,.976-11.933,7.047-11.933,7.047s6.409,4.487,13.406,3.51,12.338-4.131,11.931-7.046S496.378,295.2,489.382,296.172Z" transform="translate(-454.248 -192.812)" fill="#972330"/><path d="M477.027,292.267c4.334,5.579,3.64,13.372,3.64,13.372s-7.722-1.253-12.058-6.832-5.964-11.564-3.64-13.371S472.693,286.688,477.027,292.267Z" transform="translate(-457.005 -195.045)" fill="#972330"/><path d="M484.192,311.748c-6.888,1.568-11.29,8.036-11.29,8.036s6.768,3.926,13.656,2.358,11.942-5.167,11.289-8.036S491.08,310.18,484.192,311.748Z" transform="translate(-455.174 -189.73)" fill="#972330"/><path d="M471.612,308.7c4.793,5.19,4.764,13.013,4.764,13.013s-7.8-.591-12.594-5.781-6.927-11.015-4.764-13.012S466.819,303.515,471.612,308.7Z" transform="translate(-458.173 -191.516)" fill="#972330"/><path d="M558.516,218.879s-36.147,15.737-63.677,66.009-27.383,100.066-27.383,100.066" transform="translate(-456.283 -208.49)" fill="#972330" stroke="#670000" stroke-miterlimit="10" stroke-width="1.657"/></g><path d="M553.634,290.634c-41.279,7.905-43.189,27.362-72.9,27.035s-15.289,63.473-15.289,63.473,32.036-41.747,79.632-43.272C595.883,336.243,594.914,282.729,553.634,290.634Z" transform="translate(42.683 -25.383)" fill="#972330"/><path d="M556.223,305.883s-25.109,19-59.3,22.533-37.793,50.277-26.45,66.424" transform="translate(43.241 -22.116)" fill="none" stroke="#670000" stroke-miterlimit="10" stroke-width="1.492"/><g transform="translate(508.414 313.762)"><path d="M476.55,371.033s9.991-36.869,61.309-44.07c17.688-2.482,35.8,26.2.013,27.718C523.084,355.308,503.322,351.781,476.55,371.033Z" transform="translate(-467.565 -326.811)" fill="#972330"/><path d="M543.989,337.388s-50.78,1.395-74.9,44.787" transform="translate(-469.085 -324.657)" fill="#972330" stroke="#670000" stroke-miterlimit="10" stroke-width="1.146"/></g><path d="M463.617,292.163s-7.466-49.149,21.653-83.325c13.207-15.5,50.483-3.11,20.208,24.3C492.967,244.463,473.067,255.77,463.617,292.163Z" transform="translate(42.848 -43.253)" fill="#972330"/><path d="M498.3,214.066s-43.518,38.228-33.052,93.862" transform="translate(43.024 -40.811)" fill="none" stroke="#670000" stroke-miterlimit="10" stroke-width="1.307"/></g></svg>